<svg width="75" height="75" viewBox="0 0 75 75" fill="none" xmlns="http://www.w3.org/2000/svg">
<path d="M56 28C52.68 28 50 30.68 50 34C50 34.14 50 34.28 50.02 34.42L45.96 35.78C44.68 33.36 42.32 31.6 39.52 31.14V26.82C42.08 26.14 44 23.8 44 21C44 17.68 41.32 15 38 15C34.68 15 32 17.68 32 21C32 23.8 33.92 26.14 36.5 26.82V31.14C33.7 31.6 31.34 33.36 30.06 35.78L25.98 34.42C26 34.28 26 34.14 26 34C26 30.68 23.32 28 20 28C16.68 28 14 30.68 14 34C14 37.32 16.68 40 20 40C22.12 40 23.96 38.9 25.04 37.26L29.1 38.62C28.7 41.2 29.44 43.94 31.28 46L28.46 49.54C27.7 49.18 26.88 49 26 49C22.68 49 20 51.68 20 55C20 58.32 22.68 61 26 61C29.32 61 32 58.32 32 55C32 53.64 31.56 52.4 30.8 51.4L33.62 47.86C36.34 49.38 39.66 49.36 42.36 47.86L45.18 51.4C44.44 52.4 44 53.64 44 55C44 58.32 46.68 61 50 61C53.32 61 56 58.32 56 55C56 51.68 53.32 49 50 49C49.12 49 48.3 49.18 47.54 49.52L44.72 45.98C46.58 43.9 47.3 41.18 46.9 38.6L50.96 37.24C52.02 38.88 53.88 39.98 56 39.98C59.32 39.98 62 37.3 62 33.98C62 30.66 59.32 28 56 28ZM20 36C18.9 36 18 35.1 18 34C18 32.9 18.9 32 20 32C21.1 32 22 32.9 22 34C22 35.1 21.1 36 20 36ZM26 57C24.9 57 24 56.1 24 55C24 53.9 24.9 53 26 53C27.1 53 28 53.9 28 55C28 56.1 27.1 57 26 57ZM36 21C36 19.9 36.9 19 38 19C39.1 19 40 19.9 40 21C40 22.1 39.1 23 38 23C36.9 23 36 22.1 36 21ZM38 45C35.24 45 33 42.76 33 40C33 37.24 35.24 35 38 35C40.76 35 43 37.24 43 40C43 42.76 40.76 45 38 45ZM50 53C51.1 53 52 53.9 52 55C52 56.1 51.1 57 50 57C48.9 57 48 56.1 48 55C48 53.9 48.9 53 50 53ZM56 36C54.9 36 54 35.1 54 34C54 32.9 54.9 32 56 32C57.1 32 58 32.9 58 34C58 35.1 57.1 36 56 36Z" fill="#F76923"/>
</svg>
