<svg width="75" height="75" viewBox="0 0 75 75" fill="none" xmlns="http://www.w3.org/2000/svg">
<path d="M37.5 22.75C43.5042 22.75 48.6833 27.0125 49.8521 32.9021L50.5396 36.3396L54.0458 36.5917C57.6208 36.8208 60.4167 39.8229 60.4167 43.375C60.4167 47.1563 57.3229 50.25 53.5417 50.25H23.75C18.6854 50.25 14.5833 46.1479 14.5833 41.0833C14.5833 36.3854 18.0896 32.4667 22.7417 31.9854L25.1938 31.7333L26.3396 29.5563C28.5167 25.3625 32.7792 22.75 37.5 22.75ZM37.5 18.1667C30.8771 18.1667 25.125 21.925 22.2604 27.425C15.3625 28.1583 10 34.0021 10 41.0833C10 48.6688 16.1646 54.8333 23.75 54.8333H53.5417C59.8667 54.8333 65 49.7 65 43.375C65 37.325 60.3021 32.4208 54.3438 32.0083C52.7854 24.1021 45.8417 18.1667 37.5 18.1667Z" fill="#E63690"/>
</svg>
