<svg width="75" height="75" viewBox="0 0 75 75" fill="none" xmlns="http://www.w3.org/2000/svg">
<path d="M40.6781 23.795C47.1806 24.73 52.3231 29.8725 53.2581 36.375H59.6969C58.6981 26.345 50.7081 18.355 40.6781 17.3563V23.795ZM53.2581 40.625C52.3231 47.1275 47.1806 52.27 40.6781 53.205V59.6438C50.7081 58.645 58.6981 50.655 59.6969 40.625H53.2581ZM36.4281 53.205C29.2243 52.1638 23.6781 45.98 23.6781 38.5C23.6781 31.02 29.2243 24.8363 36.4281 23.795V17.3563C25.6968 18.4188 17.3031 27.4713 17.3031 38.5C17.3031 49.5288 25.6968 58.5813 36.4281 59.6438V53.205Z" fill="#5F67B9"/>
</svg>
