<svg width="75" height="75" viewBox="0 0 75 75" fill="none" xmlns="http://www.w3.org/2000/svg">
<path d="M57.5 25.75H18.5C16.1167 25.75 14.1667 27.6625 14.1667 30V47C14.1667 49.3375 16.1167 51.25 18.5 51.25H57.5C59.8834 51.25 61.8334 49.3375 61.8334 47V30C61.8334 27.6625 59.8834 25.75 57.5 25.75ZM57.5 47H18.5V30H57.5V47ZM25 44.875H29.3334V40.625H33.6667V36.375H29.3334V32.125H25V36.375H20.6667V40.625H25V44.875Z" fill="#001F5F"/>
<path d="M43.4167 44.875C45.2116 44.875 46.6667 43.4479 46.6667 41.6875C46.6667 39.9271 45.2116 38.5 43.4167 38.5C41.6218 38.5 40.1667 39.9271 40.1667 41.6875C40.1667 43.4479 41.6218 44.875 43.4167 44.875Z" fill="#001F5F"/>
<path d="M52.0834 38.5C53.8783 38.5 55.3334 37.0729 55.3334 35.3125C55.3334 33.5521 53.8783 32.125 52.0834 32.125C50.2884 32.125 48.8334 33.5521 48.8334 35.3125C48.8334 37.0729 50.2884 38.5 52.0834 38.5Z" fill="#001F5F"/>
</svg>
